<svg xmlns="http://www.w3.org/2000/svg" width="128" height="48" fill="none">
    <path
      fill="currentColor"
      d="M36.1 31.1c-1 0-2-.2-2.8-.7a5.2 5.2 0 0 1-1.9-2c-.4-.8-.7-1.8-.7-3 0-1.1.3-2.1.7-3a5.5 5.5 0 0 1 4.7-2.7 5 5 0 0 1 5.2 5.6v.5h-8.7c0 .9.2 1.6.5 2.1.4.6.8 1 1.4 1.3.5.2 1 .4 1.6.4.8 0 1.4-.2 2-.6a3 3 0 0 0 1-1.4H41a5 5 0 0 1-1.7 2.6 5 5 0 0 1-3.2 1Zm0-9.9c-.9 0-1.6.3-2.3.9-.7.5-1.1 1.3-1.2 2.3h6.9c0-1-.4-1.8-1-2.3-.7-.6-1.4-.9-2.4-.9ZM46.5 30.9l-4.2-11h2l3.3 9.2 3.3-9.2h1.9l-4.2 11h-2.1ZM59.2 31.1c-1 0-2-.2-2.8-.7a5.2 5.2 0 0 1-2-2c-.4-.8-.6-1.8-.6-3 0-1.1.2-2.1.7-3 .5-.9 1-1.5 1.9-2 .8-.5 1.8-.7 2.8-.7a5 5 0 0 1 5.2 5.6v.5h-8.8c0 .9.3 1.6.6 2.1.4.6.8 1 1.3 1.3.5.2 1.1.4 1.7.4.8 0 1.4-.2 2-.6a3 3 0 0 0 1-1.4h1.9a5 5 0 0 1-1.7 2.6 5 5 0 0 1-3.2 1Zm0-9.9c-.9 0-1.7.3-2.4.9-.6.5-1 1.3-1.1 2.3h6.8c0-1-.3-1.8-1-2.3-.6-.6-1.4-.9-2.3-.9ZM66.8 30.9v-11h1.7l.2 2.1a4 4 0 0 1 1.5-1.7c.7-.4 1.5-.6 2.6-.6v2h-.5c-.7 0-1.3 0-1.8.3-.6.2-1 .6-1.3 1.1-.4.6-.5 1.3-.5 2.3v5.5h-1.9ZM79.5 31.1c-1 0-2-.2-2.9-.7a5.4 5.4 0 0 1-2-2c-.4-.8-.6-1.8-.6-3 0-1.1.2-2.1.7-3a5.5 5.5 0 0 1 4.8-2.7c1.3 0 2.3.3 3.2 1 1 .7 1.5 1.6 1.7 2.7h-1.9c-.1-.7-.5-1.2-1-1.6-.6-.3-1.3-.5-2-.5a3.5 3.5 0 0 0-3.1 1.8c-.4.6-.5 1.4-.5 2.3 0 1 .1 1.7.5 2.3.3.6.8 1 1.3 1.4.5.3 1.1.5 1.7.5.8 0 1.5-.2 2-.6.6-.4 1-.9 1.1-1.6h2c-.3 1.1-.9 2-1.8 2.7-.9.7-2 1-3.2 1ZM87 30.9V15H89v15.9H87ZM93 17.5c-.3 0-.7-.1-.9-.3-.2-.3-.4-.6-.4-1 0-.3.2-.6.4-.8.2-.3.6-.4 1-.4.3 0 .6.1.8.4.3.2.4.5.4.8 0 .4-.1.7-.4 1-.2.2-.5.3-.9.3ZM92.1 31v-11h1.8v11h-1.8ZM97.2 30.9v-11h1.6l.2 1.6c.3-.6.8-1 1.4-1.3a4 4 0 0 1 2-.5c.8 0 1.6.2 2.2.5.6.4 1.1.9 1.5 1.6a4.2 4.2 0 0 1 3.7-2.1c1.3 0 2.4.4 3.1 1.2.8.7 1.2 2 1.2 3.6v6.4h-1.8v-6.2c0-1.2-.2-2-.7-2.6-.5-.6-1.1-.8-2-.8-.8 0-1.6.3-2.2 1-.5.7-.8 1.6-.8 3v5.6h-1.9v-6.2c0-1.2-.2-2-.7-2.6-.4-.6-1-.8-2-.8-.8 0-1.5.3-2.1 1-.6.7-.9 1.6-.9 3v5.6h-1.8ZM121.8 31.1c-1 0-2-.2-2.8-.7a5.3 5.3 0 0 1-1.9-2c-.4-.8-.7-1.8-.7-3 0-1.1.3-2.1.7-3a5.5 5.5 0 0 1 4.7-2.7 5 5 0 0 1 5.2 5.6v.5h-8.7c0 .9.2 1.6.5 2.1.4.6.8 1 1.3 1.3.6.2 1.1.4 1.7.4.8 0 1.4-.2 2-.6a3 3 0 0 0 1-1.4h1.9a5 5 0 0 1-1.7 2.6 5 5 0 0 1-3.2 1Zm0-9.9c-.9 0-1.6.3-2.3.9-.7.5-1.1 1.3-1.2 2.3h6.9c0-1-.4-1.8-1-2.3-.7-.6-1.5-.9-2.4-.9Z"
	/>
	<path
	  fill="#029ECE"
	  d="M13.8 26.6a5.3 5.3 0 1 0 0-10.6 5.3 5.3 0 0 0 0 10.6Zm8.5 8.9a5.3 5.3 0 1 0-4.5-8 5.3 5.3 0 0 1-8 0 5.3 5.3 0 1 0 0 5.5 5.3 5.3 0 0 1 8 0c.9 1.5 2.6 2.5 4.5 2.5Z"
	/>
	<circle cx="13.8" cy="21.3" r="5.3" fill="#019D4F" />
</svg>